<svg xmlns="http://www.w3.org/2000/svg" fill="none" viewBox="0 0 32 32" height="32" width="32">
<path fill="white" d="M17.2397 8.12671C16.671 8.12683 16.1648 8.48883 15.981 9.0271L13.4937 16.3142L6.20361 18.8044C5.6655 18.9884 5.3042 19.4945 5.3042 20.0632C5.30432 20.6319 5.66549 21.1381 6.20361 21.322L13.4927 23.8103L15.981 31.0994C16.1649 31.6375 16.6711 31.9987 17.2397 31.9988C17.8085 31.9988 18.3146 31.6375 18.4985 31.0994L20.9888 23.8093L28.2759 21.322C28.8142 21.1382 29.1761 20.632 29.1763 20.0632C29.1763 19.4943 28.8142 18.9883 28.2759 18.8044L20.9878 16.3152L18.4985 9.0271L18.4604 8.92847C18.2514 8.44497 17.7732 8.12671 17.2397 8.12671ZM19.9399 17.363L27.8462 20.0632L19.9399 22.7625L17.2397 30.6687L14.5405 22.7625L6.63428 20.0632L14.5405 17.363L17.2397 9.45679L19.9399 17.363Z"></path>
<path fill="white" d="M6.63428 2.82373C6.06539 2.82373 5.55933 3.18575 5.37549 3.72412L4.23682 7.05908L0.900879 8.19873C0.362787 8.38262 0.00063324 8.8879 0.000488281 9.45654C0.000488281 10.0254 0.36263 10.5314 0.900879 10.7153L4.23682 11.854L5.37549 15.1899C5.55939 15.7282 6.06546 16.0903 6.63428 16.0903C7.20292 16.0902 7.7082 15.728 7.89209 15.1899L9.03174 11.854L12.3667 10.7153C12.9051 10.5315 13.2671 10.0254 13.2671 9.45654C13.2669 8.8878 12.9049 8.38255 12.3667 8.19873L9.03174 7.05908L7.89209 3.72412L7.854 3.62549C7.64493 3.14217 7.16752 2.82387 6.63428 2.82373ZM7.98389 8.10693L11.937 9.45654L7.98389 10.8071L6.63428 14.7603L5.28369 10.8071L1.33057 9.45654L5.28369 8.10693L6.63428 4.15381L7.98389 8.10693Z"></path>
<circle fill="#FF4438" r="6" cy="6" cx="26"></circle>
<path fill="white" d="M28.6777 6.31034C28.2627 6.87706 27.8144 7.52474 26.9179 7.52474C26.1172 7.52474 25.8189 6.75932 25.7979 6.13752C25.9733 6.53957 26.3163 6.86514 26.8515 6.85008C27.8808 6.81409 28.5864 5.8066 28.5864 4.88906C28.5864 3.7916 27.831 3 26.5195 3C25.5815 3 24.4194 3.38681 23.6558 3.9985C23.6475 4.62819 23.9712 5.44678 24.0874 5.35682C24.7494 4.84097 25.2744 4.5089 25.7836 4.34239C25.0299 5.25327 23.2214 7.3683 23 7.74063C23.0249 8.08246 23.415 9 23.606 9C23.6641 9 23.7139 8.96402 23.772 8.90105C24.3172 8.23719 24.7616 7.642 25.1569 7.06831C25.2124 7.90912 25.594 8.93703 26.6606 8.93703C27.6152 8.93703 28.5615 8.1904 28.9931 6.50825C29.0429 6.30135 28.8105 6.13943 28.6777 6.31034ZM27.5903 4.95202C27.5903 5.48276 27.1089 5.74363 26.6689 5.74363C26.4338 5.74363 26.2531 5.67671 26.1102 5.58976C26.3731 5.1584 26.6333 4.71609 26.9129 4.24258C27.4058 4.333 27.5903 4.62994 27.5903 4.95202Z"></path>
</svg>
